<svg version="1.1"
    baseProfile="full"
    width="60" height="40"
    xmlns="http://www.w3.org/2000/svg">
  <rect width="60" height="40" fill="transparent" stroke="black"/>

  <!-- normal B -->
  <path d="M 5 10, h 6, a 4 4 0 1 1 0 8, a 5 5 0 1 1 0 10, h -6, m 1 0, v -18, m 0 8, h 5" fill="transparent" stroke="black" stroke-linecap="round" stroke-linejoin="round"/>

  <!-- bold B -->
  <path d="M 43 10, h 6, a 4 4 0 1 1 0 8, a 5 5 0 1 1 0 10, h -6, m 1 0, v -18, m 0 8, h 5" fill="transparent" stroke="black" stroke-linecap="round" stroke-linejoin="round" stroke-width="3"/>

  <!-- arrow -->
  <path d="M 19 20, l 7 -7, v 4, h 7, v -4, l 7 7, l -7 7, v -4, h -7, v 4, l -7 -7" fill="transparent" stroke="black" stroke-linecap="round" stroke-linejoin="round"/>
</svg>
