<svg version="1.1"
    baseProfile="full"
    width="60" height="40"
    xmlns="http://www.w3.org/2000/svg">
  <defs>
  </defs>
  <rect width="60" height="40" fill="transparent" stroke="black"/>
  <path d="M 5 5, m 0 7, v 16, h 15, v 5, l 12 -13, l -12 -13, v 5, h -15" fill="transparent" stroke="black" stroke-linecap="round" stroke-linejoin="round"/>
  <path d="M 5 5, m 25 0, v 11, m 0 8, v 11, h 25, v -25, h -5, v -5, l 5 5, m -5 -5, h -20" fill="transparent" stroke="black" stroke-linecap="round" stroke-linejoin="round"/>
  <path d="M 5 5, m 29 10, v 10, m 0 -10, h 3, a 3 3 0 1 1 0 6, h -3, m 3 0, l 3 4" fill="transparent" stroke="black" stroke-linecap="round" stroke-linejoin="round"/>
  <path d="M 5 5, m 36 10, m 6 3, a 3 2.5 0 1 0 -3 2, a 3 2.5 0 1 1 -3 2" fill="transparent" stroke="black" stroke-linecap="round" stroke-linejoin="round"/>
  <path d="M 5 5, m 42 10, h 6, m -3 0, v 10" fill="transparent" stroke="black" stroke-linecap="round" stroke-linejoin="round"/>
</svg>
