<svg version="1.1"
    baseProfile="full"
    width="60" height="40"
    xmlns="http://www.w3.org/2000/svg">
  <rect width="60" height="40" fill="transparent" stroke="black"/>

  <!-- paper -->
  <path d="M 8 5, v 30, h 25, v -5, m 0 -16, v -4, h -5, v -5, l 5 5, m -5 -5, h -20" fill="transparent" stroke="black" stroke-linecap="round" stroke-linejoin="round"/>

  <!-- arrow -->
  <path d="M 17 14, v 16, h 20, v 5, l 17 -13, l -17 -13, v 5, h -20" fill="transparent" stroke="black" stroke-linecap="round" stroke-linejoin="round"/>

  <!-- J -->
  <path d="M 20 17, h 4, m -1 0, v 8, a 2 2 0 1 1 -4 0" fill="transparent" stroke="black" stroke-linecap="round" stroke-linejoin="round"/>

  <!-- S -->
  <path d="M 25 17, m 6 3, a 3 2.5 0 1 0 -3 2, a 3 2.5 0 1 1 -3 2" fill="transparent" stroke="black" stroke-linecap="round" stroke-linejoin="round"/>

  <!-- O -->
  <path d="M 33 17, m 2 0, a 3 5 0 1 0 0 10, a 3 5 0 1 0 0 -10" fill="transparent" stroke="black" stroke-linecap="round" stroke-linejoin="round"/>

  <!-- N -->
  <path d="M 40 17, v 10, m 0 -10, l 5 10, v -10" fill="transparent" stroke="black" stroke-linecap="round" stroke-linejoin="round"/>
</svg>
